<?xml version="1.0" encoding="UTF-8"?>
<svg id="Layer_2" xmlns="http://www.w3.org/2000/svg" viewBox="0 0 995.3 151.16">
  <defs>
    <style>
      .cls-1 {
        fill: #fff;
      }

      .cls-2 {
        fill: #9ae600;
      }
    </style>
  </defs>
  <g id="Layer_1-2" data-name="Layer_1">
    <g>
      <path class="cls-1" d="M68.81,72.61c-5.27-2.54-12.18-4.74-20.73-6.62-6.15-1.34-11.05-2.61-14.72-3.81-3.66-1.2-6.48-2.58-8.46-4.13-1.98-1.55-2.97-3.39-2.97-5.53,0-3.05,1.79-5.37,5.37-6.98,3.58-1.6,8.45-2.41,14.59-2.41,5.13,0,10.45.74,15.96,2.21,5.51,1.47,11.79,3.54,18.84,6.22l.96-18.52c-12.03-5.29-24.54-8.07-37.53-8.34-7.7-.16-14.53.9-20.49,3.17-5.96,2.27-10.64,5.47-14.03,9.58C2.22,41.57.37,46.19.05,51.32c-.43,7.86,2.07,14.23,7.5,19.13,5.43,4.89,13.99,8.54,25.7,10.94,7.59,1.55,13.31,2.86,17.16,3.93,3.85,1.07,6.86,2.38,9.02,3.93,2.16,1.55,3.25,3.58,3.25,6.09,0,3.32-1.84,5.77-5.53,7.38-3.69,1.6-8.39,2.41-14.11,2.41-6.52,0-13.34-.85-20.45-2.56-7.11-1.71-13.98-4.36-20.61-7.94l-1.44,19.17c6.2,3.53,13.04,6.07,20.53,7.62,7.48,1.55,14.54,2.33,21.17,2.33,8.87,0,16.46-1.12,22.77-3.37,6.31-2.25,11.11-5.48,14.39-9.7,3.29-4.22,4.93-9.25,4.93-15.07,0-5.4-1.27-9.94-3.81-13.63-2.54-3.69-6.44-6.8-11.71-9.34Z"/>
      <path class="cls-1" d="M169.8,26.38l-28.05,72.14-27.92-72.22h-23.66l44.04,106.26-1.24-15.45-3.27,7.58c-1.18,2.89-2.99,5.05-5.45,6.5-2.46,1.44-5.32,2.16-8.58,2.16-2.89,0-6.04-.15-9.46-.44-3.42-.29-5.77-.6-7.06-.92v17.08c7.43,1.39,13.93,2.08,19.49,2.08s10.86-1.34,16.4-4.01c5.53-2.67,10.11-8.13,13.75-16.36l6.33-14.44h-.01l38.42-89.97h-23.74Z"/>
      <path class="cls-1" d="M253.12,24.38c-4.76,0-9.25.97-13.47,2.93-4.22,1.95-7.7,4.74-10.43,8.38-2.33,3.11-3.8,6.68-4.41,10.69v-20.08h-20.13v95.67h20.13v-53.01c1.23-17.21,9.54-25.82,24.94-25.82,7.16,0,12.59,2.08,16.28,6.25,3.69,4.17,5.53,10.32,5.53,18.44v54.13h20.21v-58.78c-.05-12.56-3.38-22.17-9.98-28.83-6.6-6.65-16.16-9.98-28.67-9.98Z"/>
      <path class="cls-1" d="M681.84,24.38c-4.76,0-9.25.97-13.47,2.93-4.22,1.95-7.7,4.74-10.43,8.38-2.33,3.11-3.8,6.68-4.41,10.69v-20.08h-20.13v95.67h20.13v-53.01c1.23-17.21,9.54-25.82,24.94-25.82,7.16,0,12.59,2.08,16.28,6.25,3.69,4.17,5.53,10.32,5.53,18.44v54.13h20.21v-58.78c-.05-12.56-3.38-22.17-9.98-28.83-6.6-6.65-16.16-9.98-28.67-9.98Z"/>
      <path class="cls-1" d="M806.84,30.23c-7.03-3.42-15.35-5.13-24.98-5.13s-17.48,1.96-24.38,5.89c-6.9,3.93-12.19,9.6-15.88,17-3.69,7.4-5.53,16.16-5.53,26.26s1.99,19.18,5.97,26.58c3.98,7.4,9.78,13.07,17.4,17,7.62,3.93,16.77,5.89,27.46,5.89,6.9,0,13.78-.8,20.65-2.41,6.87-1.6,12.76-3.88,17.68-6.82l-3.69-17.48c-4.86,2.51-10.44,4.56-16.72,6.14-6.28,1.58-12.31,2.34-18.08,2.29-5.99-.16-11.18-1.23-15.56-3.21-4.38-1.98-7.77-4.69-10.14-8.14-2.38-3.45-3.62-7.44-3.73-11.99h70.81c.48-5.13.72-9.75.72-13.87-.06-8.98-1.98-16.71-5.77-23.18-3.8-6.47-9.21-11.41-16.24-14.83ZM757.24,66.4c0-4.49,1.12-8.47,3.37-11.95,2.24-3.47,5.33-6.17,9.26-8.1,3.93-1.92,8.35-2.89,13.27-2.89s9.17.95,12.91,2.85c3.74,1.9,6.66,4.58,8.74,8.06,2.08,3.47,3.13,7.48,3.13,12.03h-50.68Z"/>
      <path class="cls-1" d="M866.11,58.38c-2.67,4.66-4.08,10.03-4.2,16.11.12,6.08,1.53,11.47,4.2,16.15,2.7,4.74,6.42,8.41,11.18,11.03,4.77,2.62,10.27,3.93,16.53,3.93,5.18,0,10.13-1.27,14.83-3.8,4.37-2.36,8.01-5.38,10.89-9.06v24.3c-.79.48-1.6.95-2.43,1.39-7.08,3.8-14.84,5.69-23.29,5.69-10.85,0-20.19-1.97-28.03-5.93-7.83-3.96-13.84-9.68-18.04-17.16-4.15-7.42-6.29-16.21-6.44-26.38h-.01c0-.06.01-.11.01-.17s-.01-.11-.01-.17h.01c.15-10.12,2.3-18.9,6.48-26.3,4.23-7.48,10.25-13.22,18.08-17.2,7.83-3.98,17.15-6,27.95-6.05,8.45.11,16.18,2.01,23.21,5.73.85.45,1.7.92,2.51,1.42v24.11c-3.02-3.69-6.7-6.66-11-8.93-4.63-2.43-9.54-3.65-14.72-3.65-6.2,0-11.7,1.32-16.48,3.93-4.78,2.63-8.52,6.29-11.22,11Z"/>
      <path class="cls-1" d="M574.86,24.38c-4.76,0-9.25.97-13.47,2.93-4.22,1.95-7.7,4.74-10.43,8.38-2.33,3.11-3.8,6.68-4.41,10.69v-20.08h-20.13v95.67h20.13v-53.01c1.23-17.21,9.54-25.82,24.94-25.82,7.16,0,12.59,2.08,16.28,6.25,3.69,4.17,5.53,10.32,5.53,18.44v54.13h20.21v-58.78c-.05-12.56-3.38-22.17-9.98-28.83-6.6-6.65-16.16-9.98-28.67-9.98Z"/>
      <path class="cls-1" d="M982.19,102.76c-4.6.48-9.37.72-14.28.75-3.67-.06-6.31-.69-7.89-1.91-1.66-1.28-2.49-3.29-2.49-6.01v-49.72h36.89v-19.33h-36.89V0l-21.33,3.53v92.94c0,6.52.91,11.75,2.73,15.68,1.82,3.93,4.66,6.79,8.54,8.58,3.84,1.78,8.91,2.67,15.2,2.68h0s.06,0,.08,0,.05,0,.08,0h0c4.78,0,10.33-.34,16.68-1,6.42-.67,11.68-1.54,15.8-2.61v-19.24c-3.85.96-8.22,1.7-13.11,2.21Z"/>
      <g>
        <g>
          <path class="cls-1" d="M440.4,94.36h-22.96c7.76,19.99,23.8,29.57,44.94,29.57,30.18,0,49.47-18.36,49.47-49.25,0-32.6-19.72-49.71-49.47-49.71-23.73,0-38.18,11.25-45.12,30.03h22.76c4.82-6.95,12.55-11.59,22.36-11.59,20.84,0,28.86,14.7,28.86,31.26s-8.77,30.88-28.86,30.88c-9.36,0-16.73-3.73-21.97-11.21Z"/>
          <path class="cls-1" d="M376.79,94.36h22.96c-7.76,19.99-23.8,29.57-44.94,29.57-30.18,0-49.47-18.36-49.47-49.25,0-32.6,19.72-49.71,49.47-49.71,23.73,0,38.18,11.25,45.12,30.03h-22.76c-4.82-6.95-12.55-11.59-22.36-11.59-20.84,0-28.86,14.7-28.86,31.26s8.77,30.88,28.86,30.88c9.36,0,16.73-3.73,21.97-11.21Z"/>
        </g>
        <rect class="cls-2" x="358.89" y="64.85" width="99.42" height="19.68" rx="4.7" ry="4.7"/>
      </g>
    </g>
  </g>
</svg>