<svg xmlns="http://www.w3.org/2000/svg" version="1.1" xmlns:xlink="http://www.w3.org/1999/xlink" width="1000" height="1000"><g clip-path="url(#SvgjsClipPath1176)"><rect width="1000" height="1000" fill="#000000"></rect><g transform="matrix(2.1822744755721653,0,0,2.1822744755721653,100.00000000000003,308.3199214381189)"><svg xmlns="http://www.w3.org/2000/svg" version="1.1" xmlns:xlink="http://www.w3.org/1999/xlink" width="366.59" height="175.67"><svg id="Layer_2" xmlns="http://www.w3.org/2000/svg" viewBox="0 0 366.59 175.67">
  <defs>
    <style>
      .cls-1 {
        fill: #fff;
      }

      .cls-2 {
        fill: #67d861;
      }
    </style>
  <clipPath id="SvgjsClipPath1176"><rect width="1000" height="1000" x="0" y="0" rx="500" ry="500"></rect></clipPath></defs>
  <g id="Layer_1-2" data-name="Layer_1">
    <g>
      <g>
        <path class="cls-1" d="M239.76,123.18h-40.77c13.78,35.48,42.26,52.49,79.78,52.49,53.58,0,87.83-32.6,87.83-87.43C366.59,30.37,331.58,0,278.77,0c-42.13,0-67.78,19.98-80.11,53.31h40.41c8.55-12.33,22.27-20.57,39.7-20.57,36.99,0,51.24,26.11,51.24,55.5s-15.57,54.83-51.24,54.83c-16.61,0-29.71-6.62-39.01-19.89Z"></path>
        <path class="cls-1" d="M126.84,123.18h40.77c-13.78,35.48-42.26,52.49-79.78,52.49C34.25,175.67,0,143.07,0,88.24,0,30.37,35.01,0,87.83,0c42.13,0,67.78,19.98,80.11,53.31h-40.41c-8.55-12.33-22.27-20.57-39.7-20.57-36.99,0-51.24,26.11-51.24,55.5s15.57,54.83,51.24,54.83c16.61,0,29.71-6.62,39.01-19.89Z"></path>
      </g>
      <rect class="cls-2" x="95.04" y="70.78" width="176.51" height="34.93" rx="8.93" ry="8.93"></rect>
    </g>
  </g>
</svg></svg></g></g></svg>